<svg xmlns="http://www.w3.org/2000/svg" version="1.1" xmlns:xlink="http://www.w3.org/1999/xlink" xmlns:svgjs="http://svgjs.dev/svgjs" width="1024" height="1024"><svg xmlns="http://www.w3.org/2000/svg" xml:space="preserve" style="fill-rule:evenodd;clip-rule:evenodd;stroke-linejoin:round;stroke-miterlimit:2" viewBox="0 0 1024 1024"><path d="M.067 0v-.7h.15v.265L.459-.7h.184l-.257.277L.652 0H.468L.279-.307.217-.24V0h-.15Z" style="fill-rule:nonzero" transform="translate(-24.409 485.619) scale(364.311)"></path><path d="M.313.012a.272.272 0 0 1-.137-.033.228.228 0 0 1-.092-.09.266.266 0 0 1-.034-.135c0-.052.011-.098.033-.139a.243.243 0 0 1 .092-.096.264.264 0 0 1 .137-.035h.012c.134 0 .243.109.243.243v.01L.566-.24a.21.21 0 0 1-.002.025H.157v-.087h.257a.092.092 0 0 0-.03-.068.103.103 0 0 0-.071-.025.109.109 0 0 0-.1.06.167.167 0 0 0-.015.076v.03c0 .023.005.044.014.062a.099.099 0 0 0 .039.042c.017.01.037.015.06.015.022 0 .04-.004.055-.013a.1.1 0 0 0 .033-.035h.153a.244.244 0 0 1-.239.17Z" style="fill-rule:nonzero" transform="translate(185.987 485.619) scale(364.311)"></path><path d="M.065 0v-.504h.131l.012.081A.174.174 0 0 1 .273-.49a.192.192 0 0 1 .102-.026c.042 0 .077.009.106.027.029.018.05.044.065.078a.306.306 0 0 1 .023.123V0H.42v-.274a.13.13 0 0 0-.024-.085C.381-.38.356-.39.322-.39a.108.108 0 0 0-.055.015.107.107 0 0 0-.038.041.146.146 0 0 0-.014.065V0h-.15Z" style="fill-rule:nonzero" transform="translate(390.683 485.619) scale(364.311)"></path><path d="M.065 0v-.504h.131l.012.081A.174.174 0 0 1 .273-.49a.192.192 0 0 1 .102-.026c.042 0 .077.009.106.027.029.018.05.044.065.078a.306.306 0 0 1 .023.123V0H.42v-.274a.13.13 0 0 0-.024-.085C.381-.38.356-.39.322-.39a.108.108 0 0 0-.055.015.107.107 0 0 0-.038.041.146.146 0 0 0-.014.065V0h-.15Z" style="fill-rule:nonzero" transform="translate(601.714 485.619) scale(364.311)"></path><path d="m.132.22.121-.276h-.03L.02-.504h.163l.139.307.116-.307h.161L.291.22H.132Z" style="fill-rule:nonzero" transform="translate(805.822 485.619) scale(364.311)"></path><path d="M.506 0v-.7h.15V0h-.15ZM.067 0v-.7h.15V0h-.15Zm.131-.297v-.121H.53v.121H.198Z" style="fill-rule:nonzero" transform="translate(-24.409 788.983) scale(364.311)"></path><path d="M.255.012a.206.206 0 0 1-.106-.026.163.163 0 0 1-.066-.076.31.31 0 0 1-.023-.124v-.29h.15v.275c0 .037.007.066.023.086.015.019.04.029.074.029a.118.118 0 0 0 .055-.014A.089.089 0 0 0 .4-.169a.135.135 0 0 0 .014-.066v-.269h.15V0H.433L.421-.08a.172.172 0 0 1-.064.067.19.19 0 0 1-.102.025Z" style="fill-rule:nonzero" transform="translate(220.905 788.983) scale(364.311)"></path><path d="M.067 0v-.504h.15V0h-.15Zm.075-.562a.091.091 0 0 1-.065-.023.08.08 0 0 1-.025-.058c0-.024.008-.044.025-.059a.091.091 0 0 1 .065-.023c.027 0 .049.008.066.023a.074.074 0 0 1 .026.059.077.077 0 0 1-.026.058.094.094 0 0 1-.066.023Z" style="fill-rule:nonzero" transform="translate(431.913 788.983) scale(364.311)"></path></svg><style>@media (prefers-color-scheme: light) { :root { filter: none; } }
@media (prefers-color-scheme: dark) { :root { filter: invert(100%); } }
</style></svg>